<svg width="22" height="22" viewBox="0 0 22 22" fill="none" xmlns="http://www.w3.org/2000/svg">
<path d="M11 0C17.0751 0 22 4.92487 22 11C22 17.0751 17.0751 22 11 22C4.92487 22 0 17.0751 0 11C0 4.92487 4.92487 0 11 0ZM11 4C10.6401 4 10.2827 4.12128 9.97461 4.34277L9.02051 5.00977L7.92188 5.1543H7.9043L7.88672 5.17188C7.52637 5.2534 7.19579 5.43556 6.93457 5.69727C6.67348 5.95893 6.49151 6.28948 6.41016 6.65039L6.39355 6.66797V6.68652L6.24902 7.80469L5.58398 8.66992L5.56543 8.6875V8.70508C5.16291 9.3495 5.14519 10.1819 5.58398 10.7969L6.26758 11.752L6.44727 12.7441L4.59375 15.5742L4 16.458H6.75293L7.41895 18.0078L7.83301 19L8.42676 18.0986L10.2441 15.3574C10.7324 15.5582 11.2831 15.5766 11.7559 15.3574L13.5732 18.0986L14.167 19L14.5811 18.0078L15.2471 16.458H18L17.4062 15.5742L15.6064 12.834L15.751 11.7529L16.416 10.7969L16.4346 10.7793V10.7617C16.8371 10.1173 16.8548 9.30347 16.416 8.68848L15.751 7.73242L15.5352 6.65039H15.5527C15.5504 6.63664 15.5376 6.62738 15.5352 6.61426C15.4315 5.85964 14.835 5.24718 14.0771 5.1543H14.0586L12.9795 5.00977L12.0254 4.34277C11.7276 4.12423 11.3691 4.00429 11 4ZM7.02344 13.9697C7.27347 14.1974 7.58759 14.3426 7.92285 14.3848H7.94043L9.03906 14.5293L9.29004 14.7275L8.06641 16.584L7.6709 15.665L7.52734 15.3047H6.1416L7.02344 13.9697ZM15.8594 15.3047H14.4727L14.3281 15.665L13.9326 16.584L12.709 14.709L12.9785 14.5107L14.1133 14.3125V14.3301C14.1263 14.3276 14.1349 14.3149 14.1484 14.3125C14.4514 14.2687 14.738 14.1443 14.9766 13.9521L15.8594 15.3047ZM11 5.17188C11.1324 5.17188 11.2636 5.2122 11.3604 5.28027L12.3857 6.01953L12.5117 6.10938L12.6553 6.12793L13.915 6.30762H13.9326C14.1916 6.33645 14.3719 6.51692 14.4014 6.77637V6.8125L14.6357 8.09277L14.6523 8.21875L14.7432 8.32715L15.4805 9.35449C15.6181 9.54598 15.6361 9.87058 15.4629 10.1475L14.6533 11.2832L14.6348 11.4277L14.4551 12.6904V12.707C14.4455 12.7971 14.4146 12.8841 14.3652 12.96L14.3291 12.9785V12.9961C14.2435 13.0991 14.1205 13.1641 13.9873 13.1768H13.9512L12.6377 13.4111L12.4941 13.4287L12.3857 13.5195L11.3604 14.2578C11.1692 14.3957 10.8262 14.4139 10.5498 14.2402L9.61426 13.5195L9.50586 13.4297L9.34473 13.4111L8.08496 13.2305H8.06738C7.98596 13.2233 7.90684 13.1973 7.83789 13.1533C7.76907 13.1094 7.71184 13.0492 7.6709 12.9785C7.63263 12.912 7.60787 12.8379 7.59863 12.7617V12.7256L7.36523 11.4102L7.34668 11.2656L7.25684 11.1572L6.51953 10.1299C6.3819 9.93834 6.36378 9.59528 6.53711 9.31836L7.25684 8.38086L7.34668 8.27246L7.36426 8.11035L7.52734 6.90234C7.5298 6.89395 7.54254 6.89378 7.54492 6.88477C7.58082 6.74589 7.65363 6.61902 7.75488 6.51758C7.8561 6.41626 7.98258 6.34356 8.12109 6.30762C8.12998 6.30508 8.13014 6.29232 8.13867 6.29004L9.34473 6.12695L9.48828 6.10938L9.61426 6.01953L10.6396 5.28027C10.7364 5.21277 10.8676 5.17188 11 5.17188Z" fill="#FFA300"/>
</svg>
