<?xml version="1.0" standalone="no"?>
<!DOCTYPE svg PUBLIC "-//W3C//DTD SVG 20010904//EN"
 "http://www.w3.org/TR/2001/REC-SVG-20010904/DTD/svg10.dtd">
<svg version="1.0" xmlns="http://www.w3.org/2000/svg"
 width="512.000000pt" height="512.000000pt" viewBox="0 0 512.000000 512.000000"
 preserveAspectRatio="xMidYMid meet">
<metadata>
Created by potrace 1.16, written by Peter Selinger 2001-2019
</metadata>
<g transform="translate(0.000000,512.000000) scale(0.100000,-0.100000)"
fill="#000000" stroke="none">
<path d="M2450 4476 c-54 -11 -95 -31 -196 -95 -57 -36 -100 -41 -185 -21 -32
8 -84 11 -136 7 -146 -9 -269 -83 -363 -219 -24 -35 -53 -71 -66 -81 -12 -9
-63 -25 -114 -36 -112 -25 -178 -59 -251 -132 -66 -66 -115 -157 -130 -246
l-11 -63 -200 0 c-198 0 -199 0 -223 -25 -38 -37 -30 -101 15 -125 13 -7 649
-10 1977 -10 l1958 0 23 25 c27 32 28 75 3 106 -19 24 -23 24 -224 27 l-205 3
-11 60 c-33 190 -188 344 -381 379 -91 16 -128 41 -179 116 -56 83 -116 136
-208 181 -63 31 -84 36 -165 40 -66 4 -111 1 -153 -11 -74 -19 -107 -12 -185
40 -81 53 -109 66 -175 80 -73 16 -142 16 -215 0z m750 -576 c0 -20 -7 -20
-640 -20 -633 0 -640 0 -640 20 0 20 7 20 640 20 633 0 640 0 640 -20z"/>
<path d="M1655 3161 c-82 -21 -176 -97 -210 -167 -30 -64 -37 -157 -33 -482 3
-303 4 -319 25 -365 35 -76 77 -121 145 -158 56 -29 72 -33 138 -33 130 0 231
66 285 185 l26 59 -3 372 -3 373 -27 51 c-31 59 -94 119 -152 144 -48 22 -148
32 -191 21z m132 -178 c73 -34 73 -36 73 -426 0 -337 -1 -350 -21 -378 -64
-90 -202 -74 -245 28 -11 25 -14 105 -14 360 0 310 1 330 20 361 41 66 116 89
187 55z"/>
<path d="M613 3153 c-13 -2 -32 -16 -43 -30 -20 -25 -20 -39 -20 -567 1 -583
-1 -565 54 -586 42 -16 331 -13 395 4 70 19 123 56 165 114 47 63 61 119 59
229 -2 111 -23 167 -89 234 -39 40 -43 47 -30 58 32 27 56 118 56 214 0 81 -4
99 -29 152 -34 72 -88 126 -156 157 -44 19 -69 22 -195 24 -80 1 -155 0 -167
-3z m314 -184 c85 -53 98 -202 24 -281 -33 -35 -42 -39 -111 -48 -41 -5 -87
-12 -102 -16 l-28 -6 0 186 0 186 91 0 c76 0 98 -4 126 -21z m54 -512 c57 -30
79 -72 79 -155 0 -68 -13 -103 -55 -142 -25 -24 -34 -25 -161 -28 l-134 -4 0
117 c0 102 3 122 22 156 43 76 160 103 249 56z"/>
<path d="M2333 3150 c-12 -5 -29 -23 -38 -40 -14 -27 -15 -93 -13 -565 l3
-534 22 -23 c30 -30 86 -30 116 0 22 22 22 28 27 349 l5 326 22 -49 c20 -43
74 -166 225 -514 55 -127 94 -159 151 -128 47 25 46 13 47 586 l0 544 -29 29
c-16 16 -38 29 -48 29 -14 0 -77 -31 -85 -42 -1 -2 -4 -151 -7 -332 l-6 -328
-39 93 c-21 52 -54 126 -71 164 -18 39 -60 135 -94 214 -75 173 -89 202 -110
218 -19 14 -47 15 -78 3z"/>
<path d="M3200 3142 c-24 -12 -37 -27 -43 -51 -4 -18 -7 -227 -5 -465 4 -465
3 -460 60 -544 47 -69 122 -112 215 -124 71 -9 83 -8 137 12 72 27 138 87 174
155 l27 50 3 458 c3 408 1 462 -13 483 -23 35 -61 48 -97 33 -57 -24 -58 -28
-58 -496 0 -387 -2 -431 -18 -463 -32 -65 -125 -89 -189 -50 -70 42 -67 25
-73 522 -5 431 -6 448 -25 467 -30 29 -57 33 -95 13z"/>
<path d="M4137 3136 c-104 -49 -167 -143 -175 -262 -11 -164 64 -273 265 -387
129 -73 163 -109 177 -189 10 -56 -9 -111 -49 -147 -69 -60 -172 -35 -214 51
-11 24 -21 56 -21 70 0 17 -11 35 -30 51 -35 30 -72 28 -109 -6 -21 -20 -23
-29 -18 -82 8 -110 75 -203 182 -255 68 -33 181 -34 246 -2 60 30 114 84 147
147 24 44 27 61 27 145 0 84 -4 102 -29 153 -40 82 -95 131 -230 211 -128 75
-159 107 -175 177 -23 101 40 189 134 189 73 0 129 -50 141 -127 13 -89 84
-125 141 -71 23 21 25 29 20 83 -8 103 -76 204 -169 251 -66 33 -190 34 -261
0z"/>
<path d="M603 1685 c-57 -25 -70 -85 -27 -126 25 -23 30 -24 224 -27 l198 -3
6 -42 c31 -200 192 -367 385 -398 103 -16 126 -30 175 -106 80 -123 162 -184
291 -218 68 -17 164 -20 215 -5 19 6 58 11 87 11 47 1 60 -3 129 -50 99 -65
164 -86 274 -86 108 1 179 22 265 80 87 58 114 65 195 49 228 -44 396 22 526
206 59 84 84 102 174 119 30 5 75 17 100 26 146 52 264 196 292 357 l10 58
190 0 c191 0 218 4 245 39 20 26 15 68 -11 98 l-24 28 -1944 2 c-1637 2 -1948
0 -1975 -12z"/>
</g>
</svg>
