<?xml version="1.0" standalone="no"?>
<!DOCTYPE svg PUBLIC "-//W3C//DTD SVG 20010904//EN"
 "http://www.w3.org/TR/2001/REC-SVG-20010904/DTD/svg10.dtd">
<svg version="1.0" xmlns="http://www.w3.org/2000/svg"
 width="512.000000pt" height="512.000000pt" viewBox="0 0 512.000000 512.000000"
 preserveAspectRatio="xMidYMid meet">
<metadata>
Created by potrace 1.16, written by Peter Selinger 2001-2019
</metadata>
<g transform="translate(0.000000,512.000000) scale(0.100000,-0.100000)"
fill="#000000" stroke="none">
<path d="M2445 3617 c-57 -15 -100 -36 -165 -80 -74 -51 -105 -58 -185 -40
-43 9 -103 13 -156 11 -73 -3 -96 -9 -160 -40 -94 -45 -147 -92 -208 -182 -55
-80 -81 -97 -188 -120 -194 -41 -340 -187 -375 -373 l-12 -63 -188 0 c-146 0
-195 -3 -217 -15 -46 -24 -55 -74 -20 -119 l20 -26 -20 -26 c-38 -49 -22 -103
36 -125 13 -5 107 -9 207 -9 l183 0 12 -62 c38 -202 197 -351 406 -383 75 -11
100 -29 151 -105 123 -187 318 -265 533 -215 79 19 105 12 194 -48 108 -74
235 -102 359 -77 70 13 120 36 192 88 70 49 102 56 181 37 209 -48 400 25 517
199 69 101 81 109 193 127 184 31 338 184 375 377 l13 62 182 0 c107 0 195 5
214 11 54 19 68 75 30 123 l-20 26 20 26 c29 37 27 79 -5 109 -27 25 -29 25
-224 25 l-198 0 -11 60 c-15 89 -66 186 -132 250 -67 66 -143 106 -240 126
-96 20 -122 35 -167 96 -152 210 -327 283 -552 232 -66 -15 -71 -15 -112 5
-24 11 -72 38 -107 61 -36 22 -81 45 -100 50 -59 17 -201 21 -256 7z"/>
</g>
</svg>
