<?xml version="1.0" standalone="no"?>
<!DOCTYPE svg PUBLIC "-//W3C//DTD SVG 20010904//EN"
 "http://www.w3.org/TR/2001/REC-SVG-20010904/DTD/svg10.dtd">
<svg version="1.0" xmlns="http://www.w3.org/2000/svg"
 width="512.000000pt" height="512.000000pt" viewBox="0 0 512.000000 512.000000"
 preserveAspectRatio="xMidYMid meet">
<metadata>
Created by potrace 1.16, written by Peter Selinger 2001-2019
</metadata>
<g transform="translate(0.000000,512.000000) scale(0.100000,-0.100000)"
fill="#000000" stroke="none">
<path d="M2474 3659 c-65 -11 -129 -38 -190 -82 -69 -49 -105 -57 -184 -40
-40 9 -101 13 -160 10 -85 -4 -102 -8 -165 -40 -92 -46 -145 -94 -204 -181
-55 -80 -81 -97 -188 -120 -193 -41 -340 -188 -375 -373 l-12 -63 -188 0
c-197 0 -237 -7 -252 -46 -9 -25 -5 -296 5 -315 15 -30 41 -34 239 -39 l195
-5 20 -80 c28 -108 57 -159 128 -229 69 -67 150 -108 247 -126 98 -18 137 -45
189 -132 31 -53 122 -132 184 -161 100 -48 165 -53 373 -31 66 7 75 3 194 -72
65 -41 102 -53 192 -61 119 -10 221 20 338 101 55 38 55 38 125 30 39 -4 115
-8 170 -8 89 -1 109 2 172 28 83 33 163 99 217 178 67 99 85 111 187 127 188
30 341 183 379 379 l13 62 199 0 c198 0 199 0 223 25 50 49 23 119 -51 135
-23 5 -61 22 -84 37 l-42 28 68 6 c38 3 79 11 91 17 49 27 57 90 17 127 -27
25 -29 25 -224 25 l-198 0 -11 60 c-22 128 -116 262 -227 324 -27 16 -91 38
-142 51 -110 28 -131 40 -174 102 -141 201 -328 279 -547 228 -35 -9 -73 -13
-85 -9 -12 3 -62 30 -111 60 -125 75 -221 95 -351 73z m-1066 -1089 l-3 -35
-130 3 c-122 3 -131 5 -155 28 -17 17 -21 27 -13 32 6 4 77 7 158 7 l146 1 -3
-36z m436 34 c10 -4 16 -18 16 -35 l0 -29 -140 0 -140 0 0 28 c0 16 3 32 7 35
8 9 236 9 257 1z m416 1 c14 -4 20 -15 20 -36 l0 -29 -125 0 -125 0 0 28 c0
16 2 31 5 34 7 7 203 10 225 3z m892 -30 c3 -24 0 -35 -9 -35 -7 -1 -64 -1
-125 -1 l-113 -1 -3 36 -3 36 124 0 125 0 4 -35z m448 1 l0 -35 -130 -3 c-72
-2 -135 -1 -140 0 -11 4 -14 55 -3 65 3 4 66 7 140 7 l133 0 0 -34z m456 25
c1 -1 18 -14 38 -31 37 -28 37 -29 14 -35 -12 -3 -93 -4 -178 -3 -154 3 -155
3 -158 26 -8 53 -3 55 146 49 75 -3 138 -6 138 -6z"/>
</g>
</svg>
