<?xml version="1.0" standalone="no"?>
<!DOCTYPE svg PUBLIC "-//W3C//DTD SVG 20010904//EN"
 "http://www.w3.org/TR/2001/REC-SVG-20010904/DTD/svg10.dtd">
<svg version="1.0" xmlns="http://www.w3.org/2000/svg"
 width="512.000000pt" height="512.000000pt" viewBox="0 0 512.000000 512.000000"
 preserveAspectRatio="xMidYMid meet">
<metadata>
Created by potrace 1.16, written by Peter Selinger 2001-2019
</metadata>
<g transform="translate(0.000000,512.000000) scale(0.100000,-0.100000)"
fill="#000000" stroke="none">
<path d="M2505 4634 l-25 -27 -2 -275 -3 -276 -65 -13 c-193 -39 -336 -189
-374 -391 -16 -89 -33 -112 -122 -176 -109 -78 -161 -147 -195 -259 -22 -69
-22 -92 -3 -302 6 -70 6 -70 -37 -135 -24 -36 -51 -81 -60 -100 -67 -146 -44
-333 58 -473 35 -48 38 -57 37 -117 -1 -36 -5 -107 -9 -157 -9 -104 0 -152 47
-246 38 -76 87 -129 174 -188 79 -53 94 -77 114 -179 37 -191 176 -333 369
-376 l71 -16 0 -197 c0 -184 1 -199 20 -219 30 -32 64 -37 102 -15 l33 19 5
284 5 284 70 16 c89 20 156 54 217 109 88 78 124 146 153 284 19 86 34 109
109 160 87 59 142 119 180 201 51 106 60 172 40 297 -19 121 -15 147 32 217
81 123 100 190 91 321 -6 88 -26 142 -90 241 -47 71 -48 78 -32 286 8 106 -1
157 -46 245 -27 54 -104 135 -173 180 -75 49 -91 74 -111 170 -42 204 -177
344 -369 386 l-76 17 0 196 0 197 -26 27 c-35 34 -77 34 -109 0z"/>
</g>
</svg>
