<?xml version="1.0" standalone="no"?>
<!DOCTYPE svg PUBLIC "-//W3C//DTD SVG 20010904//EN"
 "http://www.w3.org/TR/2001/REC-SVG-20010904/DTD/svg10.dtd">
<svg version="1.0" xmlns="http://www.w3.org/2000/svg"
 width="512.000000pt" height="512.000000pt" viewBox="0 0 512.000000 512.000000"
 preserveAspectRatio="xMidYMid meet">
<metadata>
Created by potrace 1.16, written by Peter Selinger 2001-2019
</metadata>
<g transform="translate(0.000000,512.000000) scale(0.100000,-0.100000)"
fill="#000000" stroke="none">
<path d="M2440 4006 c-56 -16 -99 -38 -169 -85 -59 -40 -77 -42 -265 -26 -188
16 -325 -52 -437 -217 -50 -73 -78 -94 -142 -107 -159 -33 -260 -90 -332 -189
-47 -64 -63 -99 -84 -184 l-17 -73 -203 -5 c-198 -5 -203 -6 -222 -29 -18 -22
-19 -46 -19 -526 0 -480 1 -504 19 -526 19 -23 24 -24 222 -29 l203 -5 8 -35
c54 -235 175 -358 397 -406 96 -21 117 -35 170 -112 75 -110 140 -162 257
-203 70 -25 185 -29 262 -10 76 19 124 9 191 -38 86 -60 152 -83 256 -88 116
-7 204 18 295 82 36 25 80 48 98 51 18 3 74 -1 125 -10 105 -19 170 -13 270
24 93 35 159 92 237 204 44 62 76 81 168 101 138 29 236 93 311 204 35 51 54
100 78 201 l9 35 203 5 c201 5 203 5 223 30 15 19 18 32 13 60 -4 19 -6 46 -4
60 1 14 3 66 3 115 0 79 -3 97 -29 148 -39 81 -93 131 -229 211 -65 38 -128
83 -141 100 -32 42 -47 112 -34 159 17 61 29 67 135 67 111 0 128 -11 140 -85
13 -91 83 -127 141 -73 24 22 25 27 18 88 -8 79 -8 106 0 145 5 23 1 37 -13
55 -20 25 -22 25 -223 30 l-203 5 -8 35 c-29 126 -62 193 -132 268 -68 74
-164 122 -274 137 -71 9 -106 36 -174 132 -68 96 -144 152 -250 184 -71 22
-102 22 -313 3 -57 -5 -64 -4 -115 31 -75 50 -126 76 -185 91 -61 17 -175 16
-235 0z m173 -564 c510 2 927 0 927 -4 0 -5 -441 -8 -980 -8 -670 0 -980 3
-980 10 0 7 16 9 40 6 22 -3 42 0 46 6 4 7 9 7 13 -1 5 -8 260 -10 934 -9z
m-1654 -501 c22 -22 41 -81 41 -126 0 -53 -19 -100 -53 -133 -29 -28 -44 -34
-108 -42 -41 -5 -86 -12 -101 -16 l-28 -6 0 171 0 171 115 0 c100 0 117 -2
134 -19z m461 -26 c-3 -22 -5 -199 -5 -393 l0 -353 -100 3 c-83 3 -99 6 -96
18 2 8 4 60 4 115 -1 121 -21 180 -88 245 l-44 43 19 24 c39 50 53 118 48 235
l-6 109 137 -3 136 -3 -5 -40z m406 37 c31 -20 34 -54 34 -399 -1 -273 -3
-352 -14 -365 -11 -15 -30 -18 -117 -18 -57 0 -109 4 -116 8 -29 18 -33 70
-33 390 0 308 1 329 20 360 l20 32 97 0 c54 0 103 -4 109 -8z m454 -387 l0
-396 -125 3 -125 3 -3 393 -2 392 128 0 127 0 0 -395z m450 143 c0 -138 -2
-249 -4 -247 -2 2 -23 49 -46 104 -23 55 -52 123 -65 151 -58 124 -102 233
-97 238 3 3 52 6 109 6 l103 0 0 -252z m422 -113 c1 -201 2 -377 2 -392 l1
-28 -125 0 -125 0 -3 393 -2 392 125 0 125 0 2 -365z m448 -8 c0 -321 -2 -376
-16 -395 -14 -20 -23 -22 -124 -22 l-109 0 -16 30 c-13 24 -15 86 -15 395 l0
365 140 0 140 0 0 -373z m363 295 c-12 -172 59 -279 264 -395 129 -73 163
-109 177 -189 8 -46 -8 -114 -30 -122 -9 -3 -60 -6 -115 -6 -91 0 -100 2 -113
23 -8 12 -17 34 -20 50 -3 15 -8 37 -11 50 -5 28 -52 56 -85 50 -13 -2 -35
-13 -48 -26 -20 -19 -23 -30 -21 -82 l3 -60 -100 0 c-88 0 -99 2 -98 18 0 9 1
186 2 392 l2 375 99 0 99 0 -5 -78z m-1379 -507 c46 -104 81 -194 77 -198 -4
-4 -52 -6 -107 -5 l-99 3 -2 245 -2 245 24 -50 c14 -27 63 -135 109 -240z
m-1603 82 c58 -30 79 -72 79 -157 0 -47 -6 -74 -20 -98 l-20 -33 -153 3 -152
3 -3 93 c-2 81 0 98 19 132 44 77 160 104 250 57z"/>
</g>
</svg>
