<?xml version="1.0" standalone="no"?>
<!DOCTYPE svg PUBLIC "-//W3C//DTD SVG 20010904//EN"
 "http://www.w3.org/TR/2001/REC-SVG-20010904/DTD/svg10.dtd">
<svg version="1.0" xmlns="http://www.w3.org/2000/svg"
 width="512.000000pt" height="512.000000pt" viewBox="0 0 512.000000 512.000000"
 preserveAspectRatio="xMidYMid meet">
<metadata>
Created by potrace 1.16, written by Peter Selinger 2001-2019
</metadata>
<g transform="translate(0.000000,512.000000) scale(0.100000,-0.100000)"
fill="#000000" stroke="none">
<path d="M2430 4555 c-30 -9 -91 -39 -135 -67 -90 -59 -122 -64 -263 -41 -93
15 -174 3 -259 -38 -70 -33 -161 -112 -194 -167 -52 -87 -89 -112 -189 -131
-95 -18 -182 -64 -248 -129 -69 -69 -106 -136 -130 -234 l-18 -73 -203 -5
c-198 -5 -203 -6 -222 -29 -26 -32 -24 -77 6 -106 l24 -25 1961 0 1961 0 24
25 c16 15 25 36 25 55 0 19 -9 40 -25 55 -24 25 -25 25 -223 25 l-198 0 -12
63 c-36 192 -186 338 -390 380 -88 18 -114 34 -155 95 -47 68 -114 138 -164
171 -97 64 -245 90 -363 62 -88 -21 -122 -15 -191 32 -103 70 -160 90 -269 93
-64 3 -113 -1 -150 -11z"/>
<path d="M1644 3156 c-87 -22 -157 -82 -202 -176 l-27 -55 0 -365 0 -365 26
-55 c55 -116 160 -183 284 -183 119 0 215 59 273 168 l27 50 0 385 0 385 -27
50 c-70 132 -213 197 -354 161z m153 -177 c63 -39 63 -41 63 -424 0 -335 -1
-348 -21 -376 -59 -84 -184 -76 -239 13 -19 31 -20 51 -20 368 0 317 1 337 20
368 42 69 130 92 197 51z"/>
<path d="M4203 3160 c-89 -19 -168 -81 -214 -170 -20 -37 -24 -60 -24 -135 0
-163 59 -248 250 -359 150 -88 177 -118 189 -211 25 -193 -248 -227 -280 -35
-8 50 -23 76 -51 89 -35 16 -48 14 -82 -15 -26 -22 -31 -33 -31 -70 0 -107 82
-231 183 -274 109 -47 253 -21 335 61 85 84 115 228 73 340 -35 93 -76 144
-154 195 -213 136 -231 149 -250 187 -56 110 8 237 118 237 73 0 129 -50 141
-127 13 -89 84 -125 141 -71 23 21 25 29 20 83 -8 105 -76 205 -172 253 -48
24 -134 34 -192 22z"/>
<path d="M610 3153 c-8 -3 -25 -15 -37 -26 l-23 -20 0 -547 0 -547 26 -24 c24
-23 32 -24 182 -27 227 -5 297 12 377 92 75 76 104 180 85 312 -12 87 -27 120
-82 180 l-40 43 29 58 c26 54 28 67 28 173 0 132 -14 171 -87 247 -71 72 -119
87 -293 90 -82 1 -157 0 -165 -4z m317 -183 c49 -29 68 -73 67 -157 0 -111
-42 -157 -159 -172 -38 -5 -82 -14 -97 -20 l-28 -11 0 190 0 190 93 0 c74 0
98 -4 124 -20z m52 -508 c55 -28 75 -63 79 -142 5 -80 -6 -115 -49 -156 -30
-29 -32 -29 -165 -32 l-134 -4 0 119 c1 137 13 171 76 209 49 30 141 33 193 6z"/>
<path d="M2329 3145 c-49 -27 -50 -33 -47 -603 l3 -531 22 -23 c33 -33 89 -30
119 6 l24 27 1 322 0 322 25 -50 c13 -27 58 -129 100 -225 151 -348 176 -399
200 -414 13 -9 30 -16 38 -16 28 0 64 22 75 47 8 16 11 188 11 557 0 517 -1
534 -20 559 -11 13 -31 28 -45 31 -29 7 -78 -15 -91 -41 -5 -10 -11 -161 -14
-336 l-5 -318 -62 143 c-34 79 -98 226 -142 328 -98 225 -123 253 -192 215z"/>
<path d="M3200 3147 c-49 -25 -50 -34 -50 -473 0 -247 4 -434 11 -470 21 -121
124 -225 242 -244 65 -10 149 0 198 26 54 27 116 92 141 147 23 52 23 55 26
506 3 402 1 456 -13 477 -35 53 -104 53 -136 0 -18 -29 -19 -56 -19 -465 0
-426 0 -434 -22 -468 -53 -87 -183 -81 -238 9 -19 32 -20 52 -20 471 l0 439
-29 29 c-32 32 -53 35 -91 16z"/>
<path d="M575 1585 c-30 -29 -32 -74 -6 -106 19 -23 24 -24 222 -29 l203 -5
17 -72 c25 -100 63 -169 128 -233 68 -66 161 -114 255 -131 85 -16 120 -38
169 -109 60 -88 123 -147 190 -180 81 -39 193 -60 267 -48 30 4 84 11 120 14
63 6 67 5 120 -31 30 -21 84 -52 120 -69 59 -28 74 -31 165 -31 125 0 184 17
290 85 l80 52 65 -7 c36 -3 90 -9 120 -14 68 -10 180 8 252 41 61 29 157 113
189 166 52 87 89 112 189 131 195 37 345 186 381 379 l12 62 199 0 c198 0 199
0 223 25 33 32 33 78 0 110 l-24 25 -1961 0 -1961 0 -24 -25z"/>
</g>
</svg>
