<?xml version="1.0" standalone="no"?>
<!DOCTYPE svg PUBLIC "-//W3C//DTD SVG 20010904//EN"
 "http://www.w3.org/TR/2001/REC-SVG-20010904/DTD/svg10.dtd">
<svg version="1.0" xmlns="http://www.w3.org/2000/svg"
 width="512.000000pt" height="512.000000pt" viewBox="0 0 512.000000 512.000000"
 preserveAspectRatio="xMidYMid meet">
<metadata>
Created by potrace 1.16, written by Peter Selinger 2001-2019
</metadata>
<g transform="translate(0.000000,512.000000) scale(0.100000,-0.100000)"
fill="#000000" stroke="none">
<path d="M2430 4406 c-54 -15 -98 -37 -164 -83 -27 -18 -60 -36 -73 -39 -24
-6 -38 -5 -167 17 -53 8 -83 8 -130 -1 -140 -27 -231 -86 -314 -203 -67 -94
-91 -111 -191 -132 -198 -42 -346 -189 -385 -383 l-11 -57 -202 -3 -202 -2
-20 -27 c-35 -44 -26 -95 20 -118 42 -22 3896 -22 3938 0 46 24 55 74 20 119
l-20 26 -203 0 -203 0 -7 43 c-18 117 -69 211 -154 287 -71 63 -141 97 -240
116 -88 17 -110 29 -148 81 -87 119 -111 145 -157 176 -101 66 -225 95 -328
77 -30 -6 -77 -13 -106 -16 -55 -7 -66 -3 -189 75 -28 17 -75 38 -105 46 -65
18 -197 18 -259 1z"/>
<path d="M1638 3156 c-84 -24 -152 -85 -196 -176 l-27 -55 0 -365 0 -365 26
-55 c55 -116 160 -183 284 -183 119 0 215 59 273 168 l27 50 0 385 0 385 -27
50 c-70 132 -222 200 -360 161z m159 -177 c63 -39 63 -41 63 -424 0 -335 -1
-348 -21 -376 -59 -84 -184 -76 -239 13 -19 31 -20 51 -20 368 0 317 1 337 20
368 42 69 130 92 197 51z"/>
<path d="M4203 3160 c-89 -19 -168 -81 -214 -170 -20 -37 -24 -60 -24 -135 0
-163 59 -248 250 -359 150 -88 177 -118 189 -211 25 -193 -248 -227 -280 -35
-8 50 -23 76 -51 89 -35 16 -48 14 -82 -15 -26 -22 -31 -33 -31 -70 0 -107 82
-231 183 -274 109 -48 253 -22 335 61 85 84 115 228 73 340 -35 93 -76 144
-154 195 -213 136 -231 149 -250 187 -56 110 8 237 118 237 73 0 129 -50 141
-127 13 -89 83 -125 140 -72 24 22 26 29 21 84 -8 105 -76 205 -172 253 -48
24 -134 34 -192 22z"/>
<path d="M610 3153 c-8 -3 -25 -15 -37 -26 l-23 -20 0 -547 0 -547 26 -24 c25
-23 32 -24 187 -27 225 -5 291 11 372 92 75 76 104 180 85 312 -12 87 -27 120
-82 180 l-40 43 29 58 c26 54 28 67 28 173 0 132 -14 171 -87 247 -71 72 -119
87 -293 90 -82 1 -157 0 -165 -4z m317 -183 c49 -29 68 -73 67 -157 0 -111
-42 -157 -159 -172 -38 -5 -82 -14 -97 -20 l-28 -11 0 190 0 190 93 0 c74 0
98 -4 124 -20z m71 -517 c42 -30 62 -80 62 -151 0 -68 -13 -103 -55 -142 -25
-24 -34 -25 -161 -28 l-134 -4 0 119 c1 137 13 171 76 210 34 21 48 24 112 20
52 -3 81 -10 100 -24z"/>
<path d="M2329 3145 c-49 -27 -50 -33 -47 -603 l3 -531 22 -23 c33 -33 89 -30
119 6 l24 27 1 322 0 322 25 -50 c13 -27 58 -129 100 -225 151 -348 176 -399
200 -414 13 -9 30 -16 38 -16 28 0 64 22 75 47 8 16 11 188 11 557 0 517 -1
534 -20 559 -11 13 -31 28 -45 31 -29 7 -78 -15 -91 -41 -5 -10 -11 -161 -14
-336 l-5 -318 -62 143 c-34 79 -98 226 -142 328 -98 225 -123 253 -192 215z"/>
<path d="M3200 3147 c-49 -25 -50 -34 -50 -473 0 -247 4 -434 11 -470 14 -79
64 -154 134 -200 44 -29 69 -38 132 -46 70 -9 84 -8 136 12 74 28 148 95 178
163 24 52 24 53 27 506 3 402 1 456 -13 477 -35 53 -104 53 -136 0 -18 -29
-19 -56 -19 -465 0 -426 0 -434 -22 -468 -53 -87 -183 -81 -238 9 -19 32 -20
52 -20 471 l0 439 -29 29 c-32 32 -53 35 -91 16z"/>
<path d="M575 1735 c-30 -29 -32 -74 -6 -106 19 -23 24 -24 222 -29 l203 -5
18 -73 c47 -195 186 -325 387 -366 89 -19 113 -33 154 -94 114 -166 245 -243
411 -243 45 0 97 5 116 11 72 21 122 13 189 -30 87 -57 129 -76 189 -89 140
-30 272 1 401 93 48 34 64 36 262 21 102 -8 170 5 250 45 52 27 145 115 175
166 39 66 84 101 151 114 100 21 151 40 212 81 111 74 176 173 201 304 l12 65
200 0 c198 0 199 0 223 25 33 32 33 78 0 110 l-24 25 -1961 0 -1961 0 -24 -25z"/>
</g>
</svg>
