<?xml version="1.0" standalone="no"?>
<!DOCTYPE svg PUBLIC "-//W3C//DTD SVG 20010904//EN"
 "http://www.w3.org/TR/2001/REC-SVG-20010904/DTD/svg10.dtd">
<svg version="1.0" xmlns="http://www.w3.org/2000/svg"
 width="512.000000pt" height="512.000000pt" viewBox="0 0 512.000000 512.000000"
 preserveAspectRatio="xMidYMid meet">
<metadata>
Created by potrace 1.16, written by Peter Selinger 2001-2019
</metadata>
<g transform="translate(0.000000,512.000000) scale(0.100000,-0.100000)"
fill="#000000" stroke="none">
<path d="M2447 4089 c-45 -11 -103 -39 -176 -88 -48 -32 -61 -36 -115 -35 -34
0 -90 5 -126 10 -179 26 -353 -57 -459 -219 -47 -73 -88 -100 -176 -116 -195
-36 -352 -189 -387 -378 l-11 -62 -205 -3 c-200 -3 -204 -3 -223 -27 -18 -22
-19 -47 -19 -606 0 -559 1 -584 19 -606 19 -23 24 -24 222 -29 l203 -5 18 -74
c25 -103 54 -156 123 -227 70 -71 163 -120 258 -135 78 -13 113 -33 155 -89
74 -100 97 -127 136 -156 58 -43 92 -60 166 -79 65 -17 108 -17 290 0 65 6 65
6 144 -44 112 -72 160 -86 281 -85 116 0 176 19 276 86 75 50 108 58 179 42
210 -49 416 31 528 206 20 30 41 60 47 66 23 23 74 43 134 53 89 14 186 65
252 130 64 65 102 137 126 239 l17 72 199 0 c197 0 198 0 222 25 32 31 32 75
1 112 l-24 28 21 40 c31 61 35 174 8 246 -35 93 -76 144 -154 195 -213 136
-231 149 -250 187 -56 110 8 237 118 237 73 0 129 -50 141 -127 13 -89 83
-125 140 -72 24 22 26 29 21 84 -2 33 -15 81 -27 106 l-22 46 26 26 c41 41 34
97 -15 122 -22 12 -71 15 -217 15 l-190 0 -11 60 c-22 129 -115 261 -227 324
-27 16 -91 38 -142 51 -51 13 -104 31 -118 40 -13 8 -49 49 -79 89 -79 107
-149 160 -256 196 -70 23 -189 28 -249 10 -72 -21 -122 -13 -188 30 -84 54
-119 71 -177 86 -56 15 -170 17 -228 3z m-987 -1058 c0 -5 -10 -30 -22 -57
-23 -48 -23 -57 -23 -414 0 -355 1 -366 22 -412 12 -27 20 -48 17 -48 -59 -5
-269 1 -268 7 0 4 6 22 13 38 24 56 32 143 21 221 -12 87 -27 120 -82 180
l-40 43 29 58 c26 54 28 67 28 173 0 100 -3 121 -22 158 -13 23 -23 47 -23 52
0 6 69 10 175 10 96 0 175 -4 175 -9z m820 -461 l0 -470 -146 0 c-135 0 -146
1 -139 18 35 82 36 91 33 461 -3 357 -4 367 -25 410 -13 25 -23 46 -23 48 0 2
68 3 150 3 l150 0 0 -470z m449 178 c-1 -263 -2 -290 -15 -260 -8 17 -64 145
-124 283 -61 138 -108 255 -105 260 4 5 60 9 126 9 l119 0 -1 -292z m421 -96
c0 -387 7 -484 36 -529 l14 -22 -146 -3 c-80 -2 -148 -1 -150 1 -2 2 -4 215
-4 473 l0 468 125 0 125 0 0 -388z m450 -23 c0 -404 0 -412 -22 -446 -53 -87
-183 -81 -238 9 -19 31 -20 52 -20 434 0 220 3 404 7 407 3 4 66 7 140 7 l133
0 0 -411z m410 406 c0 -3 -10 -25 -22 -48 -19 -34 -23 -58 -23 -132 0 -163 59
-248 250 -359 150 -88 177 -118 189 -211 25 -193 -248 -227 -280 -35 -8 50
-23 76 -51 89 -35 16 -48 14 -82 -15 -26 -22 -31 -33 -31 -70 0 -24 9 -67 20
-95 10 -29 18 -55 16 -58 -2 -3 -62 -6 -133 -6 -144 0 -134 -7 -108 85 12 45
15 125 15 457 l0 403 120 0 c66 0 120 -2 120 -5z m-2213 -56 c63 -39 63 -41
63 -424 0 -335 -1 -348 -21 -376 -59 -84 -184 -76 -239 13 -19 31 -20 51 -20
368 0 317 1 337 20 368 42 69 130 92 197 51z m-870 -9 c49 -29 68 -73 67 -157
0 -111 -42 -157 -159 -172 -38 -5 -82 -14 -97 -20 l-28 -11 0 190 0 190 93 0
c74 0 98 -4 124 -20z m1598 -464 c29 -66 80 -184 114 -260 33 -77 60 -141 58
-142 -1 -1 -56 -4 -122 -5 l-120 -3 -2 285 c-2 209 0 279 8 265 6 -10 35 -73
64 -140z m-1527 -53 c42 -30 62 -80 62 -151 0 -68 -13 -103 -55 -142 -25 -24
-34 -25 -161 -28 l-134 -4 0 119 c1 137 13 171 76 210 34 21 48 24 112 20 52
-3 81 -10 100 -24z"/>
</g>
</svg>
