<?xml version="1.0" standalone="no"?>
<!DOCTYPE svg PUBLIC "-//W3C//DTD SVG 20010904//EN"
 "http://www.w3.org/TR/2001/REC-SVG-20010904/DTD/svg10.dtd">
<svg version="1.0" xmlns="http://www.w3.org/2000/svg"
 width="512.000000pt" height="512.000000pt" viewBox="0 0 512.000000 512.000000"
 preserveAspectRatio="xMidYMid meet">
<metadata>
Created by potrace 1.16, written by Peter Selinger 2001-2019
</metadata>
<g transform="translate(0.000000,512.000000) scale(0.100000,-0.100000)"
fill="#000000" stroke="none">
<path d="M2455 3463 c-46 -10 -103 -37 -169 -81 -63 -41 -77 -46 -126 -46 -30
0 -90 6 -132 13 -67 12 -86 11 -149 -3 -132 -30 -227 -97 -316 -225 -51 -73
-75 -88 -165 -105 -42 -8 -101 -26 -130 -40 -75 -35 -169 -123 -204 -190 l-29
-55 -223 -3 c-221 -3 -224 -3 -243 -27 -25 -31 -24 -72 2 -105 l21 -27 -21
-23 c-11 -12 -21 -34 -21 -48 0 -80 24 -88 277 -88 l208 -1 19 -42 c27 -59
139 -168 206 -200 31 -15 89 -34 130 -43 97 -20 127 -38 173 -105 83 -120 161
-180 281 -216 63 -20 174 -21 244 -4 77 19 117 10 203 -46 90 -59 172 -84 272
-84 96 0 186 29 267 86 36 24 80 48 98 51 19 4 72 -1 119 -11 96 -19 152 -15
252 16 119 37 167 78 284 244 24 34 63 52 149 70 40 9 98 27 128 42 66 32 177
141 204 200 l19 42 224 3 224 3 19 25 c26 34 25 76 -3 104 l-23 23 23 27 c28
33 30 76 4 107 -19 24 -22 24 -243 27 l-223 3 -18 40 c-27 57 -109 143 -177
184 -40 24 -88 42 -151 56 -108 23 -136 41 -188 117 -47 69 -124 143 -177 170
-94 47 -206 67 -289 52 -151 -29 -164 -26 -275 50 -68 46 -157 70 -254 69 -44
-1 -90 -3 -101 -6z m508 -570 c-222 -2 -584 -2 -805 0 -222 1 -41 2 402 2 443
0 624 -1 403 -2z"/>
</g>
</svg>
