<?xml version="1.0" standalone="no"?>
<!DOCTYPE svg PUBLIC "-//W3C//DTD SVG 20010904//EN"
 "http://www.w3.org/TR/2001/REC-SVG-20010904/DTD/svg10.dtd">
<svg version="1.0" xmlns="http://www.w3.org/2000/svg"
 width="512.000000pt" height="512.000000pt" viewBox="0 0 512.000000 512.000000"
 preserveAspectRatio="xMidYMid meet">
<metadata>
Created by potrace 1.16, written by Peter Selinger 2001-2019
</metadata>
<g transform="translate(0.000000,512.000000) scale(0.100000,-0.100000)"
fill="#000000" stroke="none">
<path d="M1005 3915 c-31 -30 -32 -73 -5 -108 l21 -26 -21 -21 c-22 -22 -27
-76 -7 -100 7 -9 73 -65 147 -124 74 -60 139 -112 143 -116 4 -4 -8 -40 -27
-81 -50 -104 -64 -203 -42 -299 21 -90 43 -134 117 -233 l59 -78 -1 -132 c-1
-112 2 -141 20 -191 45 -124 116 -204 246 -275 84 -47 107 -73 130 -156 55
-196 202 -318 420 -349 55 -8 107 -17 116 -21 9 -3 49 -42 89 -86 39 -44 95
-93 124 -109 115 -67 252 -81 386 -40 102 31 138 28 215 -14 183 -100 382 -83
539 47 38 32 51 38 65 30 9 -5 79 -60 155 -122 150 -119 171 -128 220 -90 33
26 36 82 5 115 l-21 23 21 22 c28 31 28 83 -1 112 -13 12 -70 60 -128 106 -58
46 -117 95 -132 109 l-26 24 34 71 c86 183 63 355 -69 518 -26 33 -52 72 -58
86 -5 14 -8 72 -5 130 9 216 -73 363 -259 467 -47 27 -94 61 -103 75 -10 14
-28 58 -40 97 -58 185 -208 311 -402 335 -129 16 -140 22 -219 109 -145 161
-305 206 -517 146 -104 -29 -122 -27 -232 29 -84 43 -159 59 -241 51 -97 -9
-184 -42 -258 -98 -36 -27 -71 -47 -77 -45 -6 3 -76 57 -155 121 -158 127
-182 136 -226 91z"/>
</g>
</svg>
