<?xml version="1.0" standalone="no"?>
<!DOCTYPE svg PUBLIC "-//W3C//DTD SVG 20010904//EN"
 "http://www.w3.org/TR/2001/REC-SVG-20010904/DTD/svg10.dtd">
<svg version="1.0" xmlns="http://www.w3.org/2000/svg"
 width="512.000000pt" height="512.000000pt" viewBox="0 0 512.000000 512.000000"
 preserveAspectRatio="xMidYMid meet">
<metadata>
Created by potrace 1.16, written by Peter Selinger 2001-2019
</metadata>
<g transform="translate(0.000000,512.000000) scale(0.100000,-0.100000)"
fill="#000000" stroke="none">
<path d="M2930 3519 c-70 -9 -128 -30 -200 -74 -66 -40 -114 -45 -201 -19 -67
20 -197 21 -261 1 -96 -30 -175 -84 -243 -166 -36 -43 -75 -85 -88 -93 -12 -9
-60 -21 -107 -27 -197 -26 -346 -148 -400 -328 -37 -122 -59 -153 -136 -198
-133 -76 -218 -191 -247 -335 l-14 -65 -169 -58 c-189 -64 -221 -86 -210 -140
4 -17 13 -38 22 -48 13 -15 13 -20 -6 -52 -16 -26 -20 -45 -15 -66 7 -31 42
-61 72 -61 10 0 117 34 237 75 l218 75 51 -45 c109 -95 232 -135 371 -120 124
14 142 10 216 -45 106 -79 169 -103 275 -108 113 -5 197 14 279 65 76 47 128
52 227 24 89 -25 120 -26 214 -6 126 27 218 86 295 190 48 66 89 91 160 100
138 16 245 68 324 156 48 54 99 150 111 209 16 83 42 117 127 167 44 27 101
71 126 98 54 59 108 171 118 242 8 60 -2 55 209 125 155 52 184 71 185 116 0
13 -9 37 -21 53 l-20 29 20 26 c31 39 27 77 -10 108 -17 14 -37 26 -44 26 -7
0 -113 -34 -234 -76 l-222 -75 -52 47 c-105 95 -248 138 -383 115 -96 -16
-125 -9 -204 49 -80 58 -110 74 -180 93 -73 20 -124 25 -190 16z"/>
</g>
</svg>
