<svg width="512" height="512" viewBox="0 0 512 512" xmlns="http://www.w3.org/2000/svg">
  <defs>
    <!-- Main gradient -->
    <linearGradient id="bgGrad" x1="0%" y1="0%" x2="100%" y2="100%">
      <stop offset="0%" style="stop-color:#8B5CF6"/>
      <stop offset="50%" style="stop-color:#A855F7"/>
      <stop offset="100%" style="stop-color:#EC4899"/>
    </linearGradient>
    
    <!-- Glow effect -->
    <filter id="glow">
      <feGaussianBlur stdDeviation="8" result="coloredBlur"/>
      <feMerge>
        <feMergeNode in="coloredBlur"/>
        <feMergeNode in="SourceGraphic"/>
      </feMerge>
    </filter>
    
    <!-- Subtle inner shadow -->
    <filter id="innerGlow" x="-50%" y="-50%" width="200%" height="200%">
      <feGaussianBlur in="SourceAlpha" stdDeviation="20" result="blur"/>
      <feOffset dx="0" dy="10"/>
      <feComposite in2="SourceAlpha" operator="arithmetic" k2="-1" k3="1"/>
      <feColorMatrix values="0 0 0 0 0  0 0 0 0 0  0 0 0 0 0  0 0 0 0.3 0"/>
      <feBlend in2="SourceGraphic"/>
    </filter>
  </defs>

  <!-- Rounded square background -->
  <rect x="16" y="16" width="480" height="480" rx="100" ry="100" fill="url(#bgGrad)"/>
  
  <!-- Subtle shine overlay -->
  <ellipse cx="256" cy="150" rx="180" ry="100" fill="white" opacity="0.1"/>
  
  <!-- Main "N" letter -->
  <text x="256" y="340" 
        font-family="system-ui, -apple-system, BlinkMacSystemFont, 'Segoe UI', Roboto, sans-serif" 
        font-size="280" 
        font-weight="800" 
        text-anchor="middle" 
        fill="white"
        filter="url(#glow)">N</text>
  
  <!-- Sparkle accent top-right -->
  <g transform="translate(380, 120)">
    <!-- Main star -->
    <path d="M0,-20 L4,-4 L20,0 L4,4 L0,20 L-4,4 L-20,0 L-4,-4 Z" 
          fill="white" opacity="0.9"/>
    <!-- Small dot -->
    <circle cx="25" cy="-15" r="4" fill="white" opacity="0.6"/>
    <circle cx="15" cy="25" r="3" fill="white" opacity="0.5"/>
  </g>
  
  <!-- Subtle bottom sparkle -->
  <g transform="translate(130, 400) scale(0.6)">
    <path d="M0,-15 L3,-3 L15,0 L3,3 L0,15 L-3,3 L-15,0 L-3,-3 Z" 
          fill="white" opacity="0.5"/>
  </g>
</svg>
